<?xml version="1.0" encoding="UTF-8"?>
<svg width="307px" height="304px" viewBox="0 0 307 304" version="1.1" xmlns="http://www.w3.org/2000/svg" xmlns:xlink="http://www.w3.org/1999/xlink">
    <!-- Generator: Sketch 53.2 (72643) - https://sketchapp.com -->
    <title>logo-gray</title>
    <desc>Created with Sketch.</desc>
    <g id="Symbols" stroke="none" stroke-width="1" fill="none" fill-rule="evenodd">
        <g id="brand" transform="translate(-93.000000, -1002.000000)" stroke="#4A4A4A">
            <g id="logo-gray" transform="translate(96.000000, 1005.000000)">
                <path d="M150.5,298 C233.618855,298 301,231.290428 301,149 C301,66.7095723 233.618855,0 150.5,0 C67.3811452,0 0,66.7095723 0,149 C0,231.290428 67.3811452,298 150.5,298 Z" id="Oval" stroke-width="4.7893" stroke-linecap="round" stroke-linejoin="round" stroke-dasharray="0,9.6305,0,9.6305,0,9.6305"></path>
                <polyline id="Path" stroke-width="2.3947" points="130.078244 129 130 171.376119 149.874046 180.767164 150.5 181 171 171.376119 171 129"></polyline>
                <polyline id="Path" stroke-width="2.3947" points="171 167 150.5 177 130 167"></polyline>
                <path d="M131,261.92271 L130.227707,209.133588 L104.58758,185.869275 L34,181 C34,181 38.8654459,195.375954 48.441879,211.22042 C57.5549363,226.291985 70.9928344,242.677481 88.5238854,249.015267 C86.2842357,235.412214 84.1218153,222.427481 81.8821656,208.824427 C100.957803,222.350191 112.464968,239.895038 117.021497,262 C121.809713,261.92271 126.211783,261.92271 131,261.92271" id="Path" stroke-width="2.3947"></path>
                <path d="M262,181 C257.047619,207.328372 243.505952,219.141395 243.505952,219.141395 C220.833333,216.670698 200.327381,222.152558 181.446429,235.973023 C195.220238,238.057674 208.452381,239.987907 222.22619,242.072558 C202.107143,258.363721 197.619048,263.613953 171.386905,264 L171,206.942326 L195.994048,186.018605 L262,181 Z" id="Path" stroke-width="2.3947"></path>
                <path d="M130,210 C130,210 146.900763,180.06196 171,207.744927" id="Path" stroke-width="2.3947"></path>
                <path d="M150.5,181 L150.5,195" id="Path" stroke-width="2.3644"></path>
                <path d="M211.117698,53.2260209 C213.823577,66.8537512 216.374834,79.8584995 219.003402,93.4862298 C199.521075,80.4814815 187.460587,63.1158594 182.12614,41 C177.41018,41.1557455 172.926153,41.311491 168.132882,41.4672365 C168.828679,64.5954416 167.514395,99.7939221 168.210193,123 L249,93.3304843 C239.954634,69.034188 233.383214,66.5422602 211.117698,53.2260209 Z" id="Path" stroke-width="2.3947"></path>
                <path d="M78.4354354,59.8483197 C92.1551552,61.9327884 105.335335,63.862852 119.055055,65.9473206 C100.248248,79.6893733 79.8228228,85.1707539 57.2392392,82.777475 C55.7747748,87.2552225 54.4644645,91.4241599 53,95.9019074 C75.044044,102.927339 107.801802,115.897366 130,123 L129.075075,38 C102.945946,38.3088102 98.4754755,43.5585831 78.4354354,59.8483197 Z" id="Path" stroke-width="2.3947"></path>
                <path d="M221,109 L191.975232,121.56187 L171,128.072595 C171,128.072595 185.241486,137.953577 197.625387,121.408676 L221,109 Z" id="Path" stroke-width="2.3947"></path>
                <path d="M79,109 L108.024768,121.528894 L129,128.062367 C129,128.062367 114.758514,137.977872 102.374613,121.375165 L79,109 Z" id="Path" stroke-width="2.3947"></path>
                <path d="M222.678783,147.596351 L277.771767,147.596351 C277.771767,148.371722 277.92674,149.224629 277.92674,150 C277.92674,150.775371 277.849253,151.628278 277.771767,152.403649 L222.678783,152.403649 L222.678783,164.421893 L276.996901,164.421893 C270.100592,221.876853 222.678783,267.313569 163.169062,273.051311 L163.169062,230.483466 L151.003663,230.483466 L151.003663,273.671608 C150.771203,273.671608 150.61623,273.671608 150.38377,273.671608 C148.911524,273.671608 147.594252,273.516534 146.122006,273.438997 L146.122006,230.405929 L136.436179,230.405929 L136.436179,272.8187 C77.158918,266.615735 30.0470555,220.791334 23.7706396,163.1813 L78.2437306,163.1813 L78.2437306,151.163056 L23.0732601,151.163056 C23.0732601,150.775371 22.9957735,150.387685 22.9957735,150 C22.9957735,148.759407 23.1507467,147.596351 23.1507467,146.433295 L78.166244,146.433295 L78.166244,136.8187 L23.7706396,136.8187 C30.0470555,79.2086659 77.158918,33.3842645 136.513666,27.1037628 L136.513666,87.5826682 L146.199493,87.5826682 L146.199493,26.4834664 C147.594252,26.4059293 148.989011,26.2508552 150.461257,26.2508552 C150.693717,26.2508552 150.84869,26.2508552 151.08115,26.2508552 L151.08115,87.4275941 L163.246548,87.4275941 L163.246548,26.8711517 C223.608622,32.686431 271.495351,79.286203 277.384334,137.904219 L222.756269,137.904219 L222.756269,147.596351 L222.678783,147.596351 Z M150.461257,14 C74.5243731,14 13,74.8665906 13,150 C13,225.133409 74.5243731,286 150.461257,286 C226.39814,286 288,225.055872 288,150 C288,74.8665906 226.39814,14 150.461257,14 Z" id="Shape" stroke-width="2.3947"></path>
            </g>
        </g>
    </g>
</svg>